<?xml version="1.0" encoding="utf-8"?>
<!-- Generator: Adobe Illustrator 23.1.0, SVG Export Plug-In . SVG Version: 6.00 Build 0)  -->
<svg version="1.1" id="Layer_1" xmlns="http://www.w3.org/2000/svg" xmlns:xlink="http://www.w3.org/1999/xlink" x="0px" y="0px"
	 viewBox="0 0 595.3 841.9" style="enable-background:new 0 0 595.3 841.9;" xml:space="preserve">
<style type="text/css">
	.st0{fill-rule:evenodd;clip-rule:evenodd;fill:#FDFDFD;}
	.st1{fill-rule:evenodd;clip-rule:evenodd;fill:#1D1D1D;}
	.st2{fill-rule:evenodd;clip-rule:evenodd;}
	.st3{fill-rule:evenodd;clip-rule:evenodd;fill:#FEFDF0;}
	.st4{fill-rule:evenodd;clip-rule:evenodd;fill:#FFFFFF;stroke:#000000;stroke-width:4;stroke-miterlimit:10;}
	.st5{font-family:'GloucesterMT-ExtraCondensed';}
	.st6{font-size:71.8215px;}
</style>
<path class="st0" d="M555.4,344.2c-1.2-3.5-2.1-5.5-2.5-7.5c-1.5-6.9,1.1-13,8.1-13.1c6.2-0.1,8.9,6,8.7,12.1
	c-0.1,3.4-2.3,5.9,1.1,10.1c9.3,11.1,4,24.1-10.5,27.7c-4.1,1-8.5,0.9-12.6,2.1c-8.1,2.3-15.4,1.8-20.3-5.8
	c-3.8-5.9-3.5-12.3,0.4-18c4.8-7.2,11.4-11.4,20.6-9.1C550,343,551.6,343.3,555.4,344.2z"/>
<path class="st0" d="M565.1,285.9c3.2,11.4,2.2,20.4-2.6,29.4C559.2,310.6,559.2,310.6,565.1,285.9z"/>
<g>
	<path class="st1" d="M37.9,330.7c-17.1-24.2-12.9-43,10.6-47.3c-7.5-16.7-7.6-33.1,3.7-48.1c2.5-3.3-0.2-4.2-1.7-6.1
		c-14.6-18-10.3-32.7,11.6-37.4c5.2-1.1,4.6-3.1,4.6-6.6c0.7-28.9,8.4-38.9,35.1-47.1c7-2.2,8.4-10.8,14.5-13.6
		c8.6-4,5.3-10.2,4-16.2c-4-19.6,14.1-44.1,38.4-34.6c4.7,1.8,6.5,0.2,9.4-3.1c12.7-14.5,22.2-16.6,41.1-8.7
		c4.6,1.9,6.4,1.9,8.8-2.7c5.8-11.5,15.1-18.7,28.3-19.4c5.1-0.2,5.7-2.5,7-6.8c4.7-16.5,11.4-21.6,28.3-21.8c3.5,0,5.4-1.7,7.9-3.3
		c20.3-12.8,42.5-9.7,57.8,8c2.7,3.1,3.6,6,8.5,1.8c13.4-11.4,28.7-13.5,44.2-5c16.1,8.8,23.5,23.1,23.4,41.4c0,3.4,0,6.7,0,10.2
		c31.6-6,51,11.4,48.4,42.7c-0.4,4.9-1.2,7.3,5.4,8.1c32,3.4,50.4,29.1,42.6,59.7c-2,8.1-1.2,11.3,7.2,13c3.4,0.7,8.4,3.6,9.1,6.5
		c4,16.2,18.1,26.2,24.4,40.8c0.8,2,2,4.3,1.7,6.1c-5.6,25.2,10.7,49.7,2,75.6c-2.5,7.5,4.3,18.8,8.3,27.7
		c2.7,5.9,3.3,11.4,2.7,17.4c-3.4,33.1-12.3,65.1-18.7,97.6c-22.2,114.1-45,228.1-67.1,342.1c-1.3,6.8-4.3,9.5-10,11.3
		c-29.7,9.2-59.2,18.6-88.9,27.8c-3.2,1-6.7,1.3-10.1,1.3c-48.5,0-97.1,0.1-145.7-0.5c-16.4-0.2-31.1-8.4-46.6-12.8
		c-16.8-4.8-33.1-11.3-49.9-15.9c-8.4-2.2-11.6-6.5-13.1-14.5C108.2,708.4,91,618.7,73.9,529c-9.5-49.7-19-99.4-28.5-149
		c-0.3-1.7-1.1-3.3-1.2-5c-0.5-4.4-4.9-8.9-9.2-9.1c-7.6-0.2-10.8-6.3-13.7-11.6c-3.1-5.8-0.8-11.7,3.5-16.5
		C28.1,333.7,32.8,331.9,37.9,330.7z M181.4,317.8c-15.4,1.1-28.6,4.8-29.1,25.1c4.9-3.7,12.2,3.3,15.5-4.3
		c3.4-7.9,10-12.5,15.7-18.2c4.7-1.5,10.6-2.1,8.4-9.9C188.4,313,184.9,315.4,181.4,317.8z M246.5,267.8
		c15.3-15.2,28.2-15.1,42.9,0.1c1.9,2,2,6,7.6,3.6c22.9-9.6,36.2-4.3,48.2,17.7c1.4,2.5,0.9,6.9,6.1,6c9.2-1.8,17.7-12.2,16.9-21.7
		c-0.5-6.7,0-13.6,5-18c9.4-8.5,4.8-15.7-0.2-23.5c-21.8,16.6-30,17.9-54.1,7.1c-3.6-1.6-5.1-0.7-7.8,1c-19,11.7-34,4.4-37.5-18
		c-0.4-2.7,1.3-6.5-2.9-7.5c-8.8-2.1-13.7-8.2-17.3-15.9c-1.1-2.4-3-4.7-5.8-4.1c-3.2,0.7-2.7,3.9-2.8,6.4
		c-0.7,13.6-4,26.4-12.7,37.1c-3,3.7-1.7,6.1-0.8,10.1c1.7,8.2,10,10.3,12.9,16.9c-2.3,2.3-3.7,6.4-1.6,7.7
		C245.2,274.1,245,269.4,246.5,267.8z M457.4,801.3c0.5,3.8,1,7.6,1.6,11.1c15.7-1.8,24.8-7.5,28.1-25.8
		c17.2-94.4,36.4-188.4,54.9-282.6c8.2-41.9,16.6-83.7,25-126.1c-10.2,0.5-17.5,0.7-20.1,12.9c-24.1,116.6-48.8,233-73.8,349.3
		c-2.5,11.8-1.4,24.9-10.2,34.9c-3.6-2.6-1.9-5.6-1.1-9.1c7.5-33.9,14.8-67.8,22-101.7c13.2-62.5,26.2-125,39.4-187.5
		c5.8-27.7,11.9-55.3,17.8-83c1.7-7.8,0.7-12.9-9.6-10.2c-7.4,1.9-15.2,2.7-22.9,3.5c-10.5,0.9-15.4,5.5-16.8,16.8
		c-5.5,43.8-12,87.5-18.5,131.2c-13.4,90.4-27.2,180.7-40.4,271.1c-0.6,4-4.5,11.7,3.8,12.2c6.2,0.4,14.4,0.3,15.9-9.3
		C453,805.9,452.6,801.9,457.4,801.3z M347.7,398.2c-2.2-1.2-4.3-3.4-6.4-3.4c-21.5-0.3-42.9-0.1-64.5-0.4c-5.9-0.1-5.7,3.4-5.9,7.5
		c-0.6,15.3,0.7,30.5,1.6,45.7c2.2,37.7,3.5,75.4,4.9,113.1c1.1,28.6,2.9,57.1,4.2,85.6c2.8,60,5.5,120,7.8,180.1
		c0.3,7.7,1.9,11.1,10.1,9.9c4.2-0.6,8.6-0.3,12.9,0c4.4,0.3,6.5-1.3,5.9-5.9c-0.9-7.7,1.6-15.2,2.1-22.8
		c3.9-64.3,7.7-128.5,11.3-192.8c3.7-65.4,7.2-130.8,10.7-196.2c0.2-4.3,1.7-7.2,4.9-9.6c0.5,6.8,1.8,13.7,1.4,20.5
		C341,561,333.1,692.6,325.2,824.2c-0.4,6.5-0.7,12.5,8.5,12c7.3-0.4,16.5,2.4,16.2-10.3c-0.1-3.4,1-6.8,1.5-10.2
		c9.9-61.4,19.8-122.8,29.7-184.3c8.5-52.5,16.9-105,25.3-157.5c3.7-22.7,7.2-45.4,11.1-68c1.4-8.4-1.2-11.8-10.1-11.3
		c-10.7,0.6-21.5-0.4-32.2,0.2C366,395.3,356.2,391.8,347.7,398.2z M283,806c0.1,0,0.2,0,0.2,0c-4.4-91.7-9.2-183.5-13-275.2
		c-1.7-41.2-2.7-82.3-4.9-123.5c-0.6-10.4-3.5-13.6-13.4-13c-11.6,0.6-23.2,0.8-34.8,0c-10.7-0.8-12.3,4-10.9,13
		c8.2,52.7,11.3,106.1,18.8,158.9c8,56.6,13.4,113.7,19.8,170.5c3.4,30.7,6.6,61.3,9.6,92.1c0.4,4.4,2.6,6,6,7
		c16,5,22.9-0.2,22.5-16.8C282.9,814.6,283,810.3,283,806z M184.6,798.9c-7-55.4-14.3-113.3-21.7-171.2
		c-9.7-75.8-19.6-151.6-28.9-227.5c-1-7.9-3.3-11.2-11.2-12.1c-11.1-1.1-22.1-3-33-5.5c-10.1-2.4-11.2,1.4-9.3,9.9
		C94,453.3,103.4,515,117.4,575.8c10.1,43.9,17.7,88.4,26.6,132.5c6.4,32,13.4,63.9,19.4,95.9c2.1,11.4,10.5,14.1,18.8,13.3
		c9.5-0.9,0.8-9,2.7-13.5C185.2,803.3,184.8,802.3,184.6,798.9z M458.4,394.8c-9.2,0-17,0.5-24.6-0.2c-7.2-0.6-9.5,2.5-10.7,9.1
		c-5.7,29.9-11.2,59.8-15.1,89.8c-6.8,51.8-16,103.3-23.9,154.9c-9.2,59.8-19.1,119.4-28.5,179.2c-0.4,2.6-2.6,7.4,0.9,7.9
		c8,1.2,16.4,1.6,24.3,0.3c5.3-0.9,4-7.8,4.7-12.2c7.6-44,15-87.9,22.4-132C424.6,593.2,441.4,494.7,458.4,394.8z M179.9,394.2
		L179.9,394.2c-3.4,0-6.9,0.4-10.3-0.1c-8.6-1.2-10.9,1.6-9.4,10.5c18.7,111.7,37.1,223.4,55.6,335.1c4.9,29.6,10.4,59.2,14.6,88.9
		c1.4,10,7.8,6.7,13.1,7.4c9,1.2,5.3-5.7,5-9.1c-2.2-21.1-5.1-42.2-7.4-63.3c-4-36-7.5-72.1-11.7-108.1
		c-6-51.8-12.6-103.5-18.7-155.3c-3.7-32.3-7.1-64.7-10.1-97.1c-0.7-7.5-3.7-9.7-10.5-9C186.8,394.5,183.4,394.2,179.9,394.2z
		 M487.9,390.8c-12.5,1.9-23.7-0.7-26.7,17.2c-22.1,135.8-45.4,271.4-68.4,407.1c-3.4,19.9-3.6,19.8,16.3,13.7
		c8-2.5,16.3-3.2,17.4-14.9c1.9-19.6,5.3-39,8.2-58.6c14.5-98.8,29-197.7,43.5-296.5C481.4,436.4,484.5,414,487.9,390.8z
		 M157.6,811.9c1.9-3.3,0.2-6.6-0.5-9.8c-24.3-120.5-48.7-241.1-73-361.6c-3.6-18.1-7.4-36.1-10.9-54.2c-2.3-12-13.1-8.6-19.6-8.9
		c-5-0.2-1.4,7.6-0.7,11.6c2.2,13.1,4.8,26.1,7.3,39.2c22.5,117.4,45.6,234.8,67.1,352.4c3.4,18.6,9.7,29.8,29,31.4
		C156.7,812.1,157.1,812,157.6,811.9z M225.3,833.6c-0.2-3-0.1-4.7-0.4-6.3c-14.2-85-28.5-169.9-42.6-254.9
		c-9.5-57.1-19-114.1-28-171.3c-1.2-7.6-5.2-9.4-11.3-9.1c-8.9,0.6-3.7,7.3-3.3,10.6c2.6,23,6.1,45.9,9,68.9
		c13.9,108.9,27.5,217.8,41.5,326.7C194,827.1,194.3,827,225.3,833.6z M197.6,190.7c1.4,22.3-8.3,38.9-29,48c-4.7,2.1-6.9,5-9.2,9.6
		c-5.3,11.1-13.7,21.4-23.6,27.1c-9.1,5.2-6.6,8.8-3.8,14.5c3,6.3,7.6,11.5,12.8,16c19.8,16.5,41.3,10.1,48.4-14.5
		c0.6-1.8,0-5.9,2.4-4.7c9.7,4.7,15.4-6.1,23.6-5.6c8.4,0.6,9.9-4.9,11-11.1c1.3-8-0.1-15.8-5.7-21.6c-4.5-4.7-3.3-7.5,0.7-11.4
		c9.5-9.7,13.3-22,13.7-35.1c0.2-6.3,1.3-16.8-11.6-9.3c-4.3,2.5-13.1,2.5-11.4-4.4c3.4-14-10.5-20.9-10.6-32.8
		c-0.1-2.2-2-3.8-4.5-3.7c-3.3,0.2-2.9,2.7-2.5,4.7C201,167.9,194.8,179.2,197.6,190.7z M332.8,389c25.9,0.1,50.7,0,75.6,0.3
		c9.5,0.1,12.3-3.9,10.2-12.7c-1.1-4.7-2.1-9.4-5.7-12.7c-3.9-3.6-3.9-6-0.3-10.5c18.3-22.9,18.7-36.9,4-61.7
		c-3.2-5.3-5.7-5.9-11.1-3.1c-8.8,4.5-18.2,5-27.1,0c-3-1.7-4.7-2.2-7.8,0.2c-10.8,8.6-25.1,14.8-20.3,33.2c0.6,2.2-0.6,5.2-1.9,7.3
		c-5.4,9.2-6.3,17.9,3.9,26.7c-4.6,0-7,0-9.4,0c-14.3,0-16,2.4-10.5,15.2C334.6,376.7,333.5,382.2,332.8,389z M166.1,85.9
		c-8-8-16.2-11.6-26.2-6.5c-9.9,5-13.9,13.6-14.1,24.1c-0.3,9.1-5.9,24.9-12,32c-0.6,0.6-1,1.4-2.2,3.1c8.9,3.9,13.8,11.6,16.8,20.6
		c26.1-16.5,38.5-14.5,64.8,9.8c1.1-11.6-3-21.7-8.1-34c12.7,6.8,21.5,7.4,26.9-6.4c1.9-4.9,8.4-8,13-12.1
		c-10.5-10.8-14.3-24.2-12.7-38.9c0.8-7.3-2.8-10.1-8.3-12.4C188.7,59,177.1,65.1,166.1,85.9z M261.8,119.1
		c7.7,9.6,15.3,10.3,24,2.4c2.6-2.4,7.1-3,10.8-3.7c10.1-1.7,14.8,3.6,11.8,13.3c-3,10.2-10.1,17.7-17.6,25
		c-6.9,6.8-5.4,13.3,3.7,16.1c6.8,2.1,13.5,0.4,17.3-5.4c4.2-6.6,7-4.2,11.7-0.9c16.6,11.9,35.7,9,47.8-6.7
		c13.5-17.5,11-44.3-5.5-58.3c-14.9-12.6-33.7-10.8-48.1,4.5c-1.6,1.7-2.1,4.9-5.8,4.6c-1-5.2-1.5-10.7-3.3-15.7
		c-3.1-8.6-9.6-12.7-18.8-12.8c-9.2-0.1-10.5,5.9-12.1,13.1C275.5,104.6,269.7,112.6,261.8,119.1z M515.9,163.3
		c0.2-24.2-17.5-43.7-38.6-42.5c-20.8,1.2-34.5,21.3-31.5,46.1c0.7,6.1,2.2,12.2,6.1,16.7c5.9,6.9,5.6,10.6-1.8,16.6
		c-10.3,8.5-10.5,25.2-2.5,36.4c6.9,9.5,17.7,12.9,27,8.4c11.2-5.4,16.2-18.9,12.3-33.3c-0.2-0.8-0.6-1.6-1-2.4
		c-3-5.2-1.1-6.5,4.5-8.4C506.4,195.7,515.8,181,515.9,163.3z M432.8,191.9c-4.5-5.8-7.3-10.7-11.2-14.4c-12.1-11.4-26.5-8-33,7.3
		c-9.5,22.3,4.3,47.6,28.2,51.3c-3.6,7.8-6.7,14-18.2,12.4c-10.9-1.5-19.7,5.4-23.7,16.1c-2.5,6.4-1.5,13,4.3,17.5
		c9.1,7.1,18.9,5.8,27.2-0.8c5.5-4.5,7.9-1.3,11.6,1.9c5,4.3,9.8,6.4,14.5-1.4c3.3-5.6,9.1-10,15.6-10.4
		c11.4-0.7,17.5-5.6,16.7-17.5c-29.6-10-36.2-30.5-17.6-59.1c3.3-4.9,0.2-7.2-1.6-9.9c-2.7-3.8-5.2-0.6-7.4,1.3
		C436.1,187.7,434.6,189.9,432.8,191.9z M261.2,199.6c2.6,5.4,5.9,8.8,10.2,9c8.7,0.4,9.2,3.7,8.2,11.8
		c-1.6,13.1,13.4,25.5,21.7,18.2c11.5-10.1,19.3-6.8,29.1-0.1c1.9,1.4,4.9,1.4,7.4,1.6c16,1.3,27.4-6.2,34.4-19.9
		c7.5-14.7,6.6-29.6-2-44c-3.1-5.2-6-2.5-9.5-1c-12.6,5.2-24.9,5.1-36.9-1.9c-2.6-1.5-5.3-5.4-8.7-0.9c-7.6,10-17.3,7.3-26.3,3.3
		c-6.3-2.9-7.4-0.9-7.6,4.7C280.8,192.9,273.3,198.4,261.2,199.6z M321.6,360.7c2.2-7.7,5-13.9,12.5-19.2
		c15.6-11.1,14.9-41.2,0.3-58.5c-5.1-6-11.3-10.6-19.4-11.5c-10-1.1-16,5.9-22.5,12.4c-4-7.3-7.2-14-13.8-17.9
		c-9.3-5.6-18-5.3-25.3,3.4c-12.2,14.4-5.2,46.9,11.6,55.2c3.9,1.9,6.6,3.8,9-3.1c3.9-11.7,11.6-12.5,19.7-2.8
		c3.5,4.2,6.7,9.2,8.2,14.4C305.1,344.7,311.7,353.5,321.6,360.7z M316,97.5c22.1-14,32.4-14.4,53.5-0.7c7.2,4.6,12.7-0.1,18-1.9
		c5.2-1.8,1.9-8.2,0.7-12.4c-6-20.3-21.9-30.6-49.2-32.2c10-17.7,10.3-24.9,1.3-34.2c-10.4-10.7-29.7-13.2-42.9-6.2
		c-5.4,2.9-6,5.1-2.7,10.7c10,17.3,6.9,33-8,45.7c-2.1,1.8-5.8,2.5-4,6.6c1.2,2.7,3.3,3.4,6.2,3.2C303.5,75.3,311.7,83.2,316,97.5z
		 M110.4,216.4c3.2-4.2,5-8.2,8-9.9c8.6-4.7,12.6-10.5,14-21c1.9-13.3,18.7-16.8,28.1-6.9c8.3,8.6,11.2,20.3,4.6,29.4
		c-7,9.7-5.3,17-1.3,26.3c17.1-5.9,26.4-17.8,27.8-35.3c1.4-17.1-4.3-31.7-19.8-40.3c-19.6-10.9-34.6-1.1-48,14.6
		c-1.4-14-2.6-26.6-17.8-29.5c-12-2.3-24.3,6.5-30.7,20.9c-3.6,8.1-4.8,16.6-1.9,25.1c2.3,6.8,6,12.9,14.3,12.7
		C98.1,202.2,104.7,207.3,110.4,216.4z M228.8,331.2c2.3-1.6,4.1-2.8,5.8-4.1c8.9-6.9,13.4-16,9.8-27c-3.1-9.5-10.8-14.2-20.9-13.7
		c-12,0.6-23.1,7.2-23.6,18c-0.7,13.9-7.6,19.2-17.5,25.2c-5.2,3.2-13.6,9.6-8.1,16.3c9.5,11.7,13.6,27,29,35.2
		c8.6,4.6,16.3,6.4,25.4,8.1c15.7,2.8,13.3-9.9,17.2-17.4c0.4-0.8,0.6-1.7,1.2-2.3c9.6-10.4,3.6-18.7-3.8-26.3
		C239.1,338.9,234.1,335.5,228.8,331.2z M65.5,230.4c-15.2,13.5-20.1,27.6-14.8,42.3c3.3,9.1,9,16.2,19.3,16.3
		c15.5,0.1,21.6-11.5,26.5-23.7c15,7,20.4,8.5,28.4,7.9c5.8-0.4,11.3-1.7,13.8-7.6c2.2-5.4-0.5-9.9-3.9-14.1
		c-5.9-7.2-13.5-12.2-22.4-14c-6-1.2-7.1-3.2-6.7-9.2c0.7-13.2-7.2-21.3-19-19.7c-6,0.8-9.2-0.1-13-5.1c-5.7-7.4-13.8-8.6-21.3-1.9
		c-6.4,5.7-5.6,16.9,1.6,22.7C57.1,226.7,61.3,228.2,65.5,230.4z M245.7,115.6c9.9,3,16.1-3,21.3-11.1c5.7-8.6,8.2-18.2,6.6-28.2
		c-1.2-7.3-1.5-11.4,7.6-14.2c10.9-3.3,16.2-18.6,12.6-30.6c-2.6-8.2-7.3-15.1-16.9-15.4c-9.2-0.4-16.9,10-18.7,24.2
		c0,0.5-0.1,0.9,0,1.3c0.8,5.3-2,5.3-6,4.5c-14.2-2.9-23,5-29.2,16C209.3,86.2,221.1,114.2,245.7,115.6z M220.4,190.2
		c14.4-9.8,24.8-5.8,35.2,0.9c8.1,5.2,18.6,1.3,19.8-8.1c2-15.5,7-28.9,19.1-39.6c5.2-4.6,12.4-12.8,7.9-18.2
		c-5.3-6.5-13.8,0.6-19.1,4.8c-7.1,5.6-11.4,5.9-18.8-0.4c-14.8-12.5-35.3-11.4-46.7,0.5c-10.5,11-10.1,28.2,3.1,42.7
		C226.2,178.5,222.6,182.2,220.4,190.2z M487.9,283.9c12.4-1.4,17.5,6.3,21.9,15c9.3-4.7,18.6-5.1,28.5-1.2
		c3.4,1.3,6.2,7.7,10.7,3.1c4.2-4.4,5-11.4,1.5-15.5c-6.5-7.6-2.5-12.2,1.7-18.5c8-12,6.8-28.5-2.1-39.6c-8.1-10.1-18.8-13.3-31-9.6
		c-11.1,3.3-20.1,16.8-20.7,30c-0.5,10.7,5.1,19.4,10.9,28.3C501.5,276.8,493.6,274.4,487.9,283.9z M521,379.1
		c-6.8-9.8-11.4-19.4-25.9-10.4c-9.3,5.7-20.2-1.6-23.7-12.8c-5.4-17.2-18.5-25.6-34.9-30.4c-3.6-1.1-4.9,1-5.1,3.6
		c-1.2,15.3-20.1,27.4-8,45.1c0.7,1.1-0.1,3.3-0.4,5c-1.4,7.9,1.8,9.8,9.7,10.2C462.3,390.8,490.9,383.8,521,379.1z M378,105
		c7.3,12.8,10.5,27.1,5.7,40.8c-4.4,12.7,1.8,15.4,10.8,14.4c14.9-1.8,23.3,7.9,33.3,15.4c2.6,2,3.3,7.7,8.9,4.3
		c4.6-2.8,4.7-6.4,3.8-11c-2.2-10.9-0.6-21.3,3.9-31.4c4.3-9.4,1.5-14.3-8.8-12.3c-7.2,1.5-9.1-0.8-12.3-6.3
		C414,102.3,396.5,97.1,378,105z M418.1,54.3c0-1.7,0.3-3.4-0.1-5.1c-2.4-15.3-9.7-27.2-24.5-33.3c-12.9-5.3-24-1.6-34.6,6.6
		c-7.1,5.5-7.7,13.6-8,20.7c-0.2,5.3,7.6,3,11.6,4.7c18.4,7.9,30,20.6,32.5,40.9c0.4,2.6-1.5,6.3,3.4,6.8c4.7,0.4,3.6-3.1,4.7-5.7
		c2.1-5,4.4-10.3,8-14.4C416.7,69.2,418.5,62.2,418.1,54.3z M287.2,388.9c9.9,0,19.8,0,29.7,0.1c5.1,0.1,9.6-0.2,10.7-6.5
		c1-5.4,0.2-10.5-4.8-13.6c-12.5-7.9-21.8-17.7-25.8-32.5c-2.1-7.5-6.4-19.1-14.3-16.9c-8.2,2.3-5.4,14.6-3.4,21.8
		c2.2,8.2-1.1,9.9-7.3,12.5c-10.6,4.5-18.2,12.5-22.2,23.7c-2.7,7.6-2.5,12.2,7.8,11.5C267.4,388.3,277.3,388.9,287.2,388.9z
		 M511.9,361.2c7.2-17.9,7.2-17.9,25.3-24.9c8.2-3.2,12-22.4,5.6-28.2c-13.1-11.9-28-9.6-37.2,5.7c-7.2,11.7-16.7,15.3-29.4,9
		c-8.3-4.1-12.9,2-15.8,6c-2.6,3.6,3,9,7.5,9.6c8.6,1.2,9.1,5.9,8.5,13.1c-0.5,5.4,3,10,8.2,12c4.6,1.8,10.1,2,12.8-2.7
		C502.7,351.6,507.3,357.4,511.9,361.2z M60.2,303.4c-5-6.4-8.1-15.1-17.8-12.9c-7,1.5-9,7.5-9.2,13.9c-0.5,13.2,6.3,21.1,19,23.8
		c-3,6.9-6.9,9.8-14.1,9c-5.4-0.6-9.5,3.5-11.6,8.6c-1.6,3.6-0.4,6.7,2.6,9.1c4.2,3.5,8.9,3.6,13.1,0.6c4.2-3.1,7-2,11.1,0.7
		c7.5,5,15.7,3.4,20.2-3.9c3.6-5.9,10.7-12.2,3.3-21c-7.2-8.7-5.5-18.3,0.2-27.4c1.2-1.9,4.7-3.9,1.8-6.3c-1.7-1.5-4.8-1.7-7.2-1.8
		C66.6,295.7,63.8,299.2,60.2,303.4z M477.1,295c-3.6-12.9-9.8-20.9-23-19.3c-12.5,1.5-20.1,9.3-23.1,21c-2.3,9.2-1,18.4,8.3,23.6
		c14.1,7.9,24.2-0.3,33.7-10c5.2,10.1,12.6,13.3,21.9,6.7c7.2-5.2,11-12.8,6.1-21.2C494.7,285,486.1,289.5,477.1,295z M203.1,388.6
		c-6.4-7.9-13.2-10.6-20.3-11.9c-5.4-1-6.5-2.4-5.8-8.2c1.4-12.6-7.1-22.3-18.3-20.7c-7,1-10.2-0.4-14.5-5.8
		c-5.6-6.9-13.5-7.2-20.3-1c-6.5,5.9-5.9,16.7,1.4,22.6c3.2,2.5,7.3,4,10.9,6c-2.1,4.8-9.4,6.1-9.1,12.3
		C151.5,390.7,176.3,388.5,203.1,388.6z M467.1,101.4c-0.3-17-11.8-31.2-26.1-33.2c-13.6-1.9-27.4,8.1-31.4,22.8
		c-0.9,3.3-2.8,6.5,1.6,8.8c12.9,6.8,20.2,22.1,37.5,22.9c4.7,0.2,8,0.2,11.1-2.4C465.8,115,466.5,107.7,467.1,101.4z M145.7,257
		c10.9-9.1,13.3-20.2,8.9-32.7c-2.2-6-4.6-10.1,3.1-15.2c7.5-5,6.2-14.5,1.9-22.2c-3-5.5-7.8-9.7-14.6-7.3
		c-8.5,3.1-9.6,10.7-8.2,18.2c1.4,6.6-1.1,7.4-6.7,8.6c-9.5,2.1-13,9.9-14.7,19c-1.7,9.4,6.5,8.6,11,11.3
		C134.8,241.7,140.7,248.8,145.7,257z M110.8,352.6c-0.2-9.1,8.6-13.8,10.9-21.5c3.5-11.5,11.8-22.4-0.3-33.6
		c-0.1-0.1,0.2-0.8,0.4-1.2c2.7-6,0.6-11-4.3-14.6c-2.5-1.9-5.8-1.8-8.3,0.5c-4.8,4.6-4.2,9.8-1.5,15.3c0.4,0.9-0.2,2.2-0.3,3.6
		c-3.7-0.8-7-2.3-10.2-2.2c-11,0.6-17.6,7.1-19,17.5c-1.3,9.3,4.7,18.5,13,17.1c13.2-2.2,14.1,5.3,16.6,13.5
		C108.3,349.1,109.7,350.8,110.8,352.6z M549.9,344.5c-3.8-0.9-5.4-1.2-7-1.6c-9.3-2.3-15.8,1.8-20.6,9.1c-3.8,5.7-4.2,12.1-0.5,18
		c5,7.7,12.2,8.2,20.4,5.9c4.1-1.1,8.5-1,12.6-2c14.6-3.6,19.8-16.6,10.6-27.8c-3.5-4.1-1.2-6.7-1.1-10.1c0.2-6.1-2.5-12.2-8.7-12.1
		c-7,0.1-9.6,6.2-8.1,13.1C547.8,339,548.7,341,549.9,344.5z M58.2,364.4c-1.8,0.3-6.1-3.9-6.7,2.5c-0.6,5.8,4.5,3.8,7.2,4.7
		c17,5.4,35.2,3.7,52.2,8.5c7.2,2,10.8-1,12.9-6.3c2.2-5.4-3.5-7.3-6.6-8.7c-6.7-3-10.8-7.9-14.4-13.9c-2.4-4.1-0.3-11.6-9.2-11.2
		c-7.6,0.4-9.5,4.9-12,10.8C77.5,360.1,69.7,364.9,58.2,364.4z M498.1,226.8c12.5-13.2,12.5-13.4,34.6-16.1c3.7-0.5,4.1-1.5,3.9-4.3
		c-0.6-8.5-14.6-18.8-21.9-14.7c-8,4.4-16.3,9.9-21.5,17.1C490.1,213.2,496.1,220.5,498.1,226.8z M128.2,330.1
		c8-3.4,19.1,12.7,23.9-4.7c4.1-15.1-13.2-10.2-16.9-19C135.5,315.3,134.1,322.9,128.2,330.1z M489.1,241.1c-4.2,2-4.7,6.9-7.8,9.7
		c-3.2,2.8-7.3,4.8-9.7,8.2c-3.6,5-7.6,10.7,0.6,16c3.3,2.1,5.4,5.9,8.9,9.9c0.9-6.1,8.3-9,4.4-14c-6.7-8.4-3.7-14.7,2.1-21.4
		C489.6,247.3,491,244.4,489.1,241.1z M382.4,215.2c-4.8,7.7-4.4,22.7,2.3,27.3c5.9,4,13.9-0.9,21.1-1.2
		C394.3,235.9,387.5,226.6,382.4,215.2z M250.7,342.3c0.9,1.4,1.7,2.9,2.6,4.3c4.4,6.7,15.4,6.7,19.5-0.2c1.4-2.5-0.5-8.3-1-7.9
		C265.4,344.2,257.3,335.5,250.7,342.3z M393.9,166.8c-7.2,1.7-14.7-10.5-20.7-0.2c-2.7,4.6,2.5,10.2,5.6,11.3
		C387.2,180.9,388.6,171,393.9,166.8z M81.9,292.7c14.7,2.6,15.8,1.7,21.6-12.7c1.1-2.6,2.4-4.2-1-5.8c-2.7-1.3-3.5,0.2-4.7,2.3
		C94.3,282.9,89.6,288.5,81.9,292.7z M559.8,286.1c-6,24.8-6,24.8-2.7,29.5C561.9,306.5,562.9,297.6,559.8,286.1z M492.9,255
		c-8.5,5.6-2.8,10.3-0.8,14.8c0.7,1.6,3.9,1.9,4.2,0.4C497.6,265.2,494.7,260.9,492.9,255z"/>
	<path class="st0" d="M347.4,408.9c-3.3,2.4-4.7,5.3-4.9,9.6c-3.5,65.4-7,130.8-10.7,196.2c-3.6,64.3-7.4,128.6-11.3,192.8
		c-0.4,7.6-3,15.1-2.1,22.8c0.6,4.6-1.5,6.1-5.9,5.9c-4.3-0.3-8.7-0.6-12.9,0c-8.1,1.2-9.8-2.2-10.1-9.9c-2.3-60-5-120.1-7.8-180.1
		c-1.3-28.5-3.1-57-4.2-85.6c-1.5-37.7-2.7-75.4-4.9-113.1c-0.9-15.2-2.2-30.4-1.6-45.7c0.2-4.1,0-7.6,5.9-7.5
		c21.5,0.3,43,0.1,64.5,0.4c2.1,0,4.3,2.2,6.4,3.4C347.6,401.8,347.5,405.3,347.4,408.9z"/>
	<path class="st2" d="M347.4,408.9c0.1-3.6,0.2-7.1,0.3-10.7c8.5-6.3,18.3-2.8,27.5-3.3c10.7-0.5,21.5,0.4,32.2-0.2
		c8.9-0.5,11.4,2.9,10.1,11.3c-3.8,22.7-7.4,45.4-11.1,68c-8.5,52.5-16.8,105-25.3,157.5c-9.9,61.4-19.8,122.8-29.7,184.3
		c-0.5,3.4-1.7,6.8-1.5,10.2c0.3,12.7-8.9,9.9-16.2,10.3c-9.2,0.5-8.9-5.6-8.5-12c8-131.6,15.9-263.2,23.6-394.8
		C349.2,422.6,347.9,415.8,347.4,408.9z"/>
	<path class="st2" d="M283,806c0,4.3-0.1,8.6,0,12.9c0.4,16.6-6.6,21.8-22.5,16.8c-3.4-1-5.6-2.6-6-7c-2.9-30.7-6.2-61.4-9.6-92.1
		c-6.4-56.8-11.7-113.9-19.8-170.5c-7.5-52.8-10.6-106.2-18.8-158.9c-1.4-8.9,0.2-13.8,10.9-13c11.6,0.8,23.2,0.7,34.8,0
		c9.9-0.5,12.8,2.7,13.4,13c2.2,41.2,3.2,82.3,4.9,123.5c3.8,91.7,8.6,183.5,13,275.2C283.1,806,283,806,283,806z"/>
	<path class="st2" d="M184.6,798.9c0.2,3.5,0.6,4.4,0.3,5.2c-1.9,4.5,6.8,12.6-2.7,13.5c-8.3,0.9-16.6-1.8-18.8-13.3
		c-6-32.1-13-63.9-19.4-95.9c-8.9-44.2-16.5-88.7-26.6-132.5c-14-60.8-23.4-122.4-36.9-183.3c-1.9-8.5-0.7-12.3,9.3-9.9
		c10.9,2.6,21.9,4.4,33,5.5c8,0.8,10.2,4.1,11.2,12.1c9.3,75.9,19.2,151.7,28.9,227.5C170.3,685.6,177.6,743.5,184.6,798.9z"/>
	<path class="st2" d="M457.4,801.3c-4.8,0.6-4.4,4.5-5,7.7c-1.5,9.6-9.6,9.7-15.9,9.3c-8.3-0.5-4.5-8.2-3.8-12.2
		c13.3-90.4,27-180.7,40.4-271.1c6.5-43.7,12.9-87.4,18.5-131.2c1.4-11.3,6.3-15.8,16.8-16.8c7.6-0.7,15.4-1.5,22.9-3.5
		c10.3-2.7,11.3,2.4,9.6,10.2c-5.8,27.7-11.9,55.3-17.8,83c-13.2,62.5-26.2,125-39.4,187.5c-7.2,33.9-14.5,67.9-22,101.7
		c-0.8,3.5-2.5,6.4,1.1,9.1C462.9,784.3,459.5,792.7,457.4,801.3z"/>
	<path class="st0" d="M458.4,394.8c-17,99.9-33.8,198.4-50.6,296.9c-7.5,44-14.8,88-22.4,132c-0.7,4.4,0.6,11.3-4.7,12.2
		c-7.9,1.3-16.3,0.8-24.3-0.3c-3.5-0.5-1.3-5.3-0.9-7.9C365,768,374.8,708.3,384,648.5c8-51.6,17.1-103.1,23.9-154.9
		c3.9-30,9.5-59.9,15.1-89.8c1.2-6.6,3.5-9.7,10.7-9.1C441.4,395.3,449.1,394.8,458.4,394.8z"/>
	<path class="st0" d="M179.9,394.2c3.5,0,7,0.3,10.3,0c6.8-0.7,9.8,1.5,10.5,9c3,32.4,6.4,64.7,10.1,97.1
		c6.1,51.8,12.7,103.5,18.7,155.3c4.2,36,7.7,72.1,11.7,108.1c2.3,21.1,5.2,42.2,7.4,63.3c0.3,3.3,4,10.2-5,9.1
		c-5.4-0.6-11.7,2.7-13.1-7.4c-4.2-29.7-9.7-59.3-14.6-88.9c-18.5-111.7-36.9-223.4-55.6-335.1c-1.5-8.9,0.7-11.7,9.4-10.5
		C173,394.6,176.5,394.2,179.9,394.2L179.9,394.2z"/>
	<path class="st0" d="M487.9,390.8c-3.4,23.2-6.5,45.6-9.7,67.9c-14.5,98.8-29,197.7-43.5,296.5c-2.9,19.5-6.3,39-8.2,58.6
		c-1.1,11.8-9.4,12.4-17.4,14.9c-19.9,6.2-19.7,6.2-16.3-13.7c23-135.7,46.3-271.3,68.4-407.1C464.1,390.1,475.3,392.7,487.9,390.8z
		"/>
	<path class="st0" d="M157.6,811.9c-0.5,0.1-0.9,0.2-1.3,0.2c-19.3-1.6-25.6-12.8-29-31.4c-21.5-117.6-44.6-235-67.1-352.4
		c-2.5-13.1-5.1-26.1-7.3-39.2c-0.7-4.1-4.3-11.8,0.7-11.6c6.5,0.3,17.3-3.1,19.6,8.9c3.5,18.1,7.3,36.1,10.9,54.2
		c24.3,120.5,48.7,241,73,361.6C157.8,805.3,159.5,808.6,157.6,811.9z"/>
	<path class="st0" d="M225.3,833.6c-31-6.6-31.4-6.5-35.1-35.3c-14-108.9-27.6-217.8-41.5-326.7c-2.9-23-6.4-45.9-9-68.9
		c-0.3-3.3-5.5-10,3.3-10.6c6.1-0.4,10.1,1.5,11.3,9.1c9,57.1,18.5,114.2,28,171.3c14.1,85,28.4,169.9,42.6,254.9
		C225.2,828.9,225.2,830.6,225.3,833.6z"/>
	<path class="st0" d="M457.4,801.3c2.2-8.7,5.5-17,5.5-26.2c8.9-10,7.7-23.1,10.2-34.9c25-116.3,49.7-232.8,73.8-349.3
		c2.5-12.3,9.9-12.5,20.1-12.9c-8.4,42.4-16.7,84.2-25,126.1c-18.5,94.1-37.7,188.2-54.9,282.6c-3.3,18.3-12.4,24-28.1,25.8
		C458.4,808.9,457.9,805.1,457.4,801.3z"/>
	<path class="st3" d="M197.6,190.7c-2.8-11.6,3.3-22.9,0.8-34.4c-0.4-2-0.8-4.5,2.5-4.7c2.4-0.1,4.4,1.5,4.5,3.7
		c0.1,11.9,14,18.8,10.6,32.8c-1.7,6.9,7.1,6.9,11.4,4.4c12.9-7.6,11.8,2.9,11.6,9.3c-0.4,13.1-4.2,25.4-13.7,35.1
		c-3.9,4-5.2,6.7-0.7,11.4c5.6,5.8,7,13.6,5.7,21.6c-1.1,6.2-2.6,11.7-11,11.1c-8.2-0.5-13.9,10.2-23.6,5.6
		c-2.5-1.2-1.9,2.9-2.4,4.7c-7.2,24.6-28.7,31-48.4,14.5c-5.3-4.5-9.9-9.7-12.8-16c-2.8-5.8-5.3-9.3,3.8-14.5
		c9.9-5.7,18.3-16,23.6-27.1c2.3-4.6,4.4-7.4,9.2-9.6C189.3,229.6,199,213,197.6,190.7z"/>
	<path class="st3" d="M332.8,389c0.7-6.8,1.8-12.3-0.5-17.7c-5.5-12.8-3.8-15.2,10.5-15.2c2.4,0,4.9,0,9.4,0
		c-10.2-8.8-9.2-17.5-3.9-26.7c1.3-2.1,2.5-5.2,1.9-7.3c-4.8-18.3,9.4-24.5,20.3-33.2c3-2.4,4.8-1.9,7.8-0.2c8.9,5,18.3,4.5,27.1,0
		c5.4-2.8,7.9-2.2,11.1,3.1c14.8,24.8,14.3,38.8-4,61.7c-3.6,4.5-3.6,6.8,0.3,10.5c3.6,3.3,4.6,8.1,5.7,12.7
		c2.1,8.7-0.7,12.8-10.2,12.7C383.5,389,358.6,389.1,332.8,389z"/>
	<path class="st3" d="M166.1,85.9c11-20.8,22.6-26.9,37.9-20.6c5.5,2.2,9.1,5.1,8.3,12.4c-1.6,14.7,2.2,28.1,12.7,38.9
		c-4.6,4.1-11.1,7.2-13,12.1c-5.4,13.8-14.2,13.2-26.9,6.4c5,12.3,9.2,22.3,8.1,34c-26.3-24.4-38.6-26.3-64.8-9.8
		c-3-9-7.9-16.7-16.8-20.6c1.2-1.7,1.6-2.5,2.2-3.1c6.1-7.1,11.7-22.9,12-32C126,93,130,84.4,139.9,79.4
		C149.9,74.3,158.1,77.9,166.1,85.9z"/>
	<path class="st3" d="M261.8,119.1c7.9-6.4,13.7-14.5,15.9-24.4c1.6-7.2,3-13.2,12.1-13.1c9.2,0.1,15.8,4.2,18.8,12.8
		c1.8,5,2.2,10.5,3.3,15.7c3.8,0.3,4.3-2.9,5.8-4.6c14.4-15.4,33.1-17.2,48.1-4.5c16.5,14,19,40.8,5.5,58.3
		c-12.1,15.7-31.2,18.6-47.8,6.7c-4.7-3.3-7.5-5.8-11.7,0.9c-3.7,5.8-10.4,7.6-17.3,5.4c-9.1-2.8-10.6-9.4-3.7-16.1
		c7.4-7.3,14.5-14.7,17.6-25c2.9-9.7-1.7-15-11.8-13.3c-3.7,0.6-8.2,1.3-10.8,3.7C277,129.4,269.5,128.7,261.8,119.1z"/>
	<path class="st3" d="M515.9,163.3c-0.2,17.7-9.5,32.4-25.6,37.7c-5.6,1.8-7.5,3.1-4.5,8.4c0.4,0.8,0.8,1.6,1,2.4
		c3.9,14.4-1.1,27.9-12.3,33.3c-9.3,4.5-20.1,1.1-27-8.4c-8-11.2-7.8-27.9,2.5-36.4c7.4-6,7.7-9.8,1.8-16.6
		c-3.9-4.4-5.4-10.6-6.1-16.7c-3-24.8,10.7-45,31.5-46.1C498.5,119.6,516.1,139.1,515.9,163.3z"/>
	<path class="st3" d="M432.8,191.9c1.8-2.1,3.3-4.2,5.2-5.9c2.1-1.8,4.7-5.1,7.4-1.3c1.9,2.7,4.9,5,1.6,9.9
		c-18.6,28.7-11.9,49.1,17.6,59.1c0.7,11.9-5.3,16.8-16.7,17.5c-6.4,0.4-12.3,4.8-15.6,10.4c-4.7,7.8-9.5,5.6-14.5,1.4
		c-3.6-3.1-6-6.3-11.6-1.9c-8.4,6.7-18.1,7.9-27.2,0.8c-5.8-4.5-6.8-11.1-4.3-17.5c4-10.7,12.9-17.6,23.7-16.1
		c11.5,1.6,14.6-4.6,18.2-12.4c-23.9-3.7-37.6-29-28.2-51.3c6.5-15.3,20.9-18.7,33-7.3C425.5,181.2,428.3,186.1,432.8,191.9z"/>
	<path class="st3" d="M261.2,199.6c12.1-1.2,19.6-6.7,20.1-19.3c0.2-5.6,1.2-7.5,7.6-4.7c9,4.1,18.7,6.7,26.3-3.3
		c3.3-4.4,6.1-0.6,8.7,0.9c12,7,24.3,7.2,36.9,1.9c3.5-1.5,6.4-4.1,9.5,1c8.6,14.4,9.5,29.3,2,44c-7,13.7-18.4,21.2-34.4,19.9
		c-2.5-0.2-5.5-0.2-7.4-1.6c-9.8-6.7-17.6-10-29.1,0.1c-8.3,7.3-23.4-5.1-21.7-18.2c1-8.1,0.5-11.5-8.2-11.8
		C267.1,208.4,263.8,205.1,261.2,199.6z"/>
	<path class="st3" d="M321.6,360.7c-9.9-7.2-16.5-16-19.8-27.7c-1.5-5.2-4.7-10.2-8.2-14.4c-8.2-9.7-15.8-8.9-19.7,2.8
		c-2.4,6.9-5.1,5-9,3.1c-16.8-8.4-23.8-40.9-11.6-55.2c7.3-8.6,16-9,25.3-3.4c6.6,3.9,9.8,10.6,13.8,17.9
		c6.5-6.5,12.5-13.5,22.5-12.4c8.1,0.9,14.3,5.5,19.4,11.5c14.6,17.3,15.3,47.4-0.3,58.5C326.6,346.8,323.8,353,321.6,360.7z"/>
	<path class="st3" d="M316,97.5c-4.2-14.3-12.4-22.3-27.2-21.5c-2.9,0.2-5-0.5-6.2-3.2c-1.7-4.1,1.9-4.8,4-6.6
		c14.9-12.7,17.9-28.3,8-45.7c-3.2-5.6-2.7-7.8,2.7-10.7c13.2-7.1,32.5-4.5,42.9,6.2c9,9.3,8.8,16.5-1.3,34.2
		c27.3,1.7,43.2,11.9,49.2,32.2c1.3,4.2,4.5,10.6-0.7,12.4c-5.3,1.8-10.7,6.5-18,1.9C348.3,83.1,338.1,83.6,316,97.5z"/>
	<path class="st3" d="M110.4,216.4c-5.7-9.1-12.4-14.2-22.6-13.9c-8.3,0.2-11.9-5.9-14.3-12.7c-2.9-8.5-1.6-17,1.9-25.1
		c6.4-14.3,18.7-23.1,30.7-20.9c15.2,2.9,16.4,15.5,17.8,29.5c13.4-15.6,28.4-25.5,48-14.6c15.5,8.6,21.2,23.1,19.8,40.3
		c-1.5,17.5-10.7,29.3-27.8,35.3c-4.1-9.2-5.7-16.6,1.3-26.3c6.6-9.2,3.7-20.8-4.6-29.4c-9.4-9.9-26.3-6.4-28.1,6.9
		c-1.4,10.5-5.4,16.3-14,21C115.4,208.2,113.7,212.3,110.4,216.4z"/>
	<path class="st3" d="M228.8,331.2c5.3,4.3,10.3,7.7,14.5,12c7.4,7.6,13.5,16,3.8,26.3c-0.6,0.6-0.8,1.5-1.2,2.3
		c-3.9,7.5-1.5,20.1-17.2,17.4c-9.2-1.6-16.8-3.4-25.4-8.1c-15.4-8.2-19.5-23.5-29-35.2c-5.4-6.7,2.9-13.1,8.1-16.3
		c9.9-6,16.8-11.3,17.5-25.2c0.5-10.8,11.6-17.4,23.6-18c10.1-0.5,17.7,4.3,20.9,13.7c3.6,11-0.9,20.1-9.8,27
		C232.9,328.4,231.1,329.6,228.8,331.2z"/>
	<path class="st3" d="M244.2,264.9c-2.9-6.6-11.2-8.7-12.9-16.9c-0.9-4-2.2-6.4,0.8-10.1c8.7-10.7,12-23.5,12.7-37.1
		c0.1-2.5-0.4-5.7,2.8-6.4c2.8-0.6,4.7,1.7,5.8,4.1c3.6,7.8,8.5,13.8,17.3,15.9c4.2,1,2.5,4.8,2.9,7.5c3.5,22.4,18.6,29.7,37.5,18
		c2.7-1.7,4.2-2.5,7.8-1c24.1,10.8,32.3,9.5,54.1-7.1c5,7.8,9.7,15,0.2,23.5c-5,4.4-5.5,11.3-5,18c0.7,9.5-7.7,20-16.9,21.7
		c-5.2,1-4.7-3.5-6.1-6c-12-22-25.4-27.3-48.2-17.7c-5.5,2.4-5.7-1.6-7.6-3.6c-14.7-15.2-27.6-15.3-42.9-0.1
		C245.8,266.9,245,265.9,244.2,264.9z"/>
	<path class="st3" d="M65.5,230.4c-4.2-2.2-8.4-3.7-11.6-6.2c-7.2-5.8-8-16.9-1.6-22.7c7.5-6.7,15.6-5.5,21.3,1.9
		c3.8,5.1,7,5.9,13,5.1c11.8-1.6,19.7,6.6,19,19.7c-0.4,6,0.7,8,6.7,9.2c9,1.7,16.6,6.7,22.4,14c3.4,4.2,6,8.7,3.9,14.1
		c-2.5,6-8,7.2-13.8,7.6c-7.9,0.5-13.3-0.9-28.4-7.9C91.6,277.5,85.5,289.1,70,289c-10.3-0.1-16-7.2-19.3-16.3
		C45.4,258,50.3,243.9,65.5,230.4z"/>
	<path class="st3" d="M245.7,115.6c-24.6-1.4-36.4-29.4-22.8-53.4c6.2-11.1,15-19,29.2-16c4.1,0.9,6.9,0.9,6-4.5c0-0.4,0-0.9,0-1.3
		c1.9-14.3,9.5-24.6,18.7-24.2c9.6,0.3,14.3,7.2,16.9,15.4c3.7,11.9-1.7,27.3-12.6,30.6c-9.1,2.8-8.7,6.9-7.6,14.2
		c1.6,10-1,19.6-6.6,28.2C261.8,112.5,255.6,118.6,245.7,115.6z"/>
	<path class="st3" d="M220.4,190.2c2.3-8.1,5.8-11.8,0.6-17.5c-13.2-14.5-13.7-31.7-3.1-42.7c11.4-11.9,31.9-13,46.7-0.5
		c7.4,6.3,11.7,6.1,18.8,0.4c5.3-4.2,13.8-11.3,19.1-4.8c4.4,5.5-2.8,13.6-7.9,18.2c-12.1,10.7-17.1,24.1-19.1,39.6
		c-1.2,9.4-11.7,13.4-19.8,8.1C245.2,184.4,234.7,180.4,220.4,190.2z"/>
	<path class="st3" d="M487.9,283.9c5.6-9.6,13.6-7.1,21.4-8c-5.8-8.9-11.4-17.6-10.9-28.3c0.6-13.2,9.6-26.8,20.7-30
		c12.2-3.6,22.9-0.5,31,9.6c8.9,11.1,10.1,27.6,2.1,39.6c-4.2,6.3-8.2,10.9-1.7,18.5c3.5,4.1,2.7,11.1-1.5,15.5
		c-4.6,4.6-7.3-1.8-10.7-3.1c-9.9-4-19.2-3.5-28.5,1.2C505.4,290.2,500.3,282.6,487.9,283.9z"/>
	<path class="st3" d="M521,379.1c-30.1,4.6-58.7,11.7-88.4,10.3c-7.9-0.3-11.1-2.3-9.7-10.2c0.3-1.7,1.2-3.9,0.4-5
		c-12.1-17.7,6.8-29.8,8-45.1c0.2-2.6,1.5-4.7,5.1-3.6c16.4,4.7,29.5,13.2,34.9,30.4c3.5,11.2,14.5,18.5,23.7,12.8
		C509.6,359.7,514.1,369.3,521,379.1z"/>
	<path class="st3" d="M378,105c18.5-7.9,36-2.7,45.4,13.9c3.2,5.5,5.1,7.7,12.3,6.3c10.3-2.1,13.1,2.9,8.8,12.3
		c-4.5,10-6.1,20.5-3.9,31.4c0.9,4.6,0.8,8.2-3.8,11c-5.6,3.4-6.2-2.3-8.9-4.3c-10-7.4-18.5-17.1-33.3-15.4
		c-9,1.1-15.2-1.7-10.8-14.4C388.5,132.1,385.3,117.9,378,105z"/>
	<path class="st3" d="M418.1,54.3c0.4,8-1.4,14.9-6.8,21.3c-3.5,4-5.9,9.3-8,14.4c-1.1,2.6,0,6.1-4.7,5.7c-4.9-0.5-3.1-4.2-3.4-6.8
		c-2.6-20.3-14.2-33-32.5-40.9c-4-1.7-11.9,0.6-11.6-4.7c0.3-7.1,0.9-15.3,8-20.7c10.5-8.2,21.7-11.9,34.6-6.6
		c14.8,6.1,22.2,17.9,24.5,33.3C418.3,50.8,418.1,52.6,418.1,54.3z"/>
	<path class="st3" d="M287.2,388.9c-9.9,0-19.8-0.7-29.7,0.1c-10.3,0.8-10.5-3.9-7.8-11.5c4-11.2,11.6-19.2,22.2-23.7
		c6.2-2.6,9.6-4.3,7.3-12.5c-2-7.3-4.8-19.6,3.4-21.8c8-2.2,12.2,9.4,14.3,16.9c4.1,14.8,13.4,24.7,25.8,32.5
		c5,3.2,5.8,8.2,4.8,13.6c-1.1,6.2-5.7,6.6-10.7,6.5C307,388.8,297.1,388.9,287.2,388.9z"/>
	<path class="st3" d="M511.9,361.2c-4.6-3.8-9.2-9.6-14.5-0.5c-2.7,4.7-8.3,4.5-12.8,2.7c-5.2-2-8.7-6.6-8.2-12
		c0.6-7.1,0.1-11.9-8.5-13.1c-4.5-0.7-10.1-6-7.5-9.6c2.8-3.9,7.5-10.1,15.8-6c12.7,6.3,22.3,2.8,29.4-9
		c9.2-15.3,24.2-17.6,37.2-5.7c6.4,5.8,2.5,25-5.6,28.2C519.1,343.3,519.1,343.3,511.9,361.2z"/>
	<path class="st3" d="M60.2,303.4c3.6-4.2,6.4-7.7,11.2-7.6c2.4,0,5.5,0.3,7.2,1.8c3,2.4-0.6,4.4-1.8,6.3
		c-5.7,9.2-7.3,18.8-0.2,27.4c7.4,8.8,0.3,15.1-3.3,21c-4.5,7.3-12.7,8.9-20.2,3.9c-4.1-2.7-6.8-3.8-11.1-0.7
		c-4.1,3-8.9,2.9-13.1-0.6c-3-2.4-4.2-5.5-2.6-9.1c2.2-5.2,6.2-9.3,11.6-8.6c7.2,0.8,11.1-2.1,14.1-9c-12.7-2.7-19.5-10.6-19-23.8
		c0.2-6.3,2.2-12.3,9.2-13.9C52.1,288.3,55.2,297,60.2,303.4z"/>
	<path class="st3" d="M477.1,295c9-5.5,17.6-10,23.9,0.8c5,8.4,1.2,16.1-6.1,21.2c-9.3,6.7-16.7,3.5-21.9-6.7
		c-9.6,9.7-19.6,17.9-33.7,10c-9.3-5.2-10.6-14.4-8.3-23.6c2.9-11.7,10.6-19.5,23.1-21C467.4,274.1,473.5,282.1,477.1,295z"/>
	<path class="st3" d="M203.1,388.6c-26.8-0.1-51.5,2.1-75.9-6.7c-0.3-6.2,7-7.5,9.1-12.3c-3.6-1.9-7.7-3.4-10.9-6
		c-7.2-5.8-7.9-16.6-1.4-22.6c6.9-6.3,14.8-5.9,20.3,1c4.2,5.3,7.5,6.8,14.5,5.8c11.2-1.7,19.7,8,18.3,20.7
		c-0.7,5.8,0.4,7.3,5.8,8.2C189.9,378,196.7,380.7,203.1,388.6z"/>
	<path class="st3" d="M467.1,101.4c-0.5,6.3-1.3,13.6-7.3,18.8c-3.1,2.7-6.4,2.7-11.1,2.4c-17.3-0.8-24.6-16.1-37.5-22.9
		c-4.4-2.4-2.5-5.6-1.6-8.8c4-14.7,17.8-24.6,31.4-22.8C455.3,70.2,466.7,84.4,467.1,101.4z"/>
	<path class="st3" d="M145.7,257c-5-8.3-10.9-15.3-19.2-20.3c-4.5-2.7-12.7-2-11-11.3c1.7-9.1,5.2-16.9,14.7-19
		c5.6-1.2,8.1-2,6.7-8.6c-1.4-7.4-0.3-15.1,8.2-18.2c6.8-2.4,11.5,1.7,14.6,7.3c4.2,7.7,5.6,17.2-1.9,22.2
		c-7.7,5.2-5.3,9.2-3.1,15.2C159,236.9,156.6,247.9,145.7,257z"/>
	<path class="st3" d="M110.8,352.6c-1-1.8-2.4-3.5-3-5.5c-2.5-8.2-3.4-15.8-16.6-13.5c-8.3,1.4-14.3-7.8-13-17.1
		c1.4-10.4,8.1-16.9,19-17.5c3.2-0.2,6.5,1.3,10.2,2.2c0.2-1.4,0.8-2.7,0.3-3.6c-2.8-5.4-3.3-10.6,1.5-15.3c2.6-2.3,5.9-2.4,8.3-0.5
		c4.9,3.6,7,8.5,4.3,14.6c-0.1,0.4-0.5,1.1-0.4,1.2c12.1,11.2,3.8,22.1,0.3,33.6C119.4,338.9,110.5,343.6,110.8,352.6z"/>
	<path class="st3" d="M549.9,344.5c-1.2-3.5-2-5.5-2.4-7.5c-1.5-6.9,1.1-13,8.1-13.1c6.1-0.1,8.8,6,8.7,12.1c0,3.4-2.4,6,1.1,10.1
		c9.3,11.2,4,24.2-10.6,27.8c-4.2,1-8.6,0.9-12.6,2c-8.2,2.3-15.4,1.8-20.4-5.9c-3.8-6-3.4-12.3,0.5-18c4.9-7.2,11.4-11.4,20.6-9.1
		C544.4,343.3,546.1,343.6,549.9,344.5z"/>
	<path class="st3" d="M58.2,364.4c11.5,0.5,19.3-4.3,23.4-13.7c2.5-5.8,4.4-10.4,12-10.8c8.9-0.4,6.7,7.1,9.2,11.2
		c3.6,6,7.7,10.9,14.4,13.9c3.1,1.4,8.8,3.3,6.6,8.7c-2.1,5.3-5.7,8.3-12.9,6.3c-17-4.7-35.2-3.1-52.2-8.5c-2.8-0.9-7.8,1.1-7.2-4.7
		C52,360.6,56.4,364.7,58.2,364.4z"/>
	<path class="st3" d="M498.1,226.8c-2-6.3-7.9-13.6-4.8-18c5.1-7.2,13.4-12.8,21.5-17.1c7.3-4.1,21.4,6.2,21.9,14.7
		c0.2,2.8-0.2,3.8-3.9,4.3C510.6,213.4,510.6,213.7,498.1,226.8z"/>
	<path class="st3" d="M128.2,330.1c5.9-7.2,7.4-14.8,7-23.7c3.7,8.8,21.1,3.8,16.9,19C147.3,342.8,136.2,326.7,128.2,330.1z"/>
	<path class="st3" d="M183.5,320.3c-5.7,5.7-12.3,10.3-15.7,18.2c-3.3,7.6-10.6,0.6-15.5,4.3c0.5-20.3,13.8-24,29.1-25.1
		C182.1,318.7,182.8,319.5,183.5,320.3z"/>
	<path class="st3" d="M489.1,241.1c1.9,3.3,0.5,6.2-1.4,8.4c-5.9,6.7-8.9,13.1-2.1,21.4c4,5-3.5,7.8-4.4,14
		c-3.5-3.9-5.6-7.8-8.9-9.9c-8.2-5.3-4.2-11-0.6-16c2.3-3.4,6.5-5.4,9.7-8.2C484.4,248,484.9,243.1,489.1,241.1z"/>
	<path class="st3" d="M382.4,215.2c5.1,11.4,11.9,20.7,23.4,26.1c-7.2,0.2-15.2,5.1-21.1,1.2C378,237.9,377.7,222.9,382.4,215.2z"/>
	<path class="st3" d="M250.7,342.3c6.7-6.8,14.7,1.9,21.1-3.8c0.5-0.4,2.4,5.4,1,7.9c-4,6.9-15.1,6.8-19.5,0.2
		C252.3,345.3,251.5,343.8,250.7,342.3z"/>
	<path class="st3" d="M393.9,166.8c-5.3,4.2-6.7,14.1-15.1,11.1c-3-1.1-8.3-6.7-5.6-11.3C379.2,156.3,386.8,168.6,393.9,166.8z"/>
	<path class="st3" d="M81.9,292.7c7.7-4.2,12.4-9.8,16-16.1c1.2-2.1,2-3.6,4.7-2.3c3.4,1.6,2,3.1,1,5.8
		C97.7,294.4,96.6,295.3,81.9,292.7z"/>
	<path class="st0" d="M559.8,286.1c3.2,11.5,2.1,20.4-2.7,29.5C553.8,310.9,553.8,310.9,559.8,286.1z"/>
	<path class="st0" d="M492.9,255c1.8,5.9,4.7,10.2,3.5,15.2c-0.3,1.5-3.5,1.2-4.2-0.4C490.1,265.3,484.4,260.6,492.9,255z"/>
	<path class="st0" d="M181.4,317.8c3.4-2.4,7-4.8,10.5-7.4c2.2,7.8-3.7,8.4-8.4,9.9C182.8,319.5,182.1,318.7,181.4,317.8z"/>
	<path class="st0" d="M246.5,267.8c-1.5,1.6-1.3,6.3-3.9,4.7c-2.1-1.2-0.7-5.4,1.6-7.7C245,265.9,245.8,266.9,246.5,267.8z"/>
</g>
<path class="st4" d="M472.6,595.6c-1.6,65.2-77.7,116.3-170,114s-165.8-56.9-164.2-122.2c1.6-65.2,77.7-116.3,170-114
	C400.7,475.7,474.2,530.4,472.6,595.6z"/>
<text transform="matrix(1 0 0 1 192.3747 614.9876)" class="st5 st6">POCHOCLO</text>
</svg>
