<?xml version="1.0" encoding="utf-8"?>
<!-- Generator: Adobe Illustrator 23.1.0, SVG Export Plug-In . SVG Version: 6.00 Build 0)  -->
<svg version="1.1" id="Capa_1" xmlns="http://www.w3.org/2000/svg" xmlns:xlink="http://www.w3.org/1999/xlink" x="0px" y="0px"
	 viewBox="0 0 32 32" style="enable-background:new 0 0 32 32;" xml:space="preserve">
<style type="text/css">
	.st0{fill:#E4E4E4;}
</style>
<path class="st0" d="M28.8,3.3l2.9,1.1c0.3,0.1,0.5,0.4,0.5,0.7c0,0.3-0.2,0.5-0.5,0.6l-2.9,1.1l-1,2.9c-0.1,0.3-0.4,0.5-0.7,0.5
	s-0.6-0.2-0.6-0.5l-1.1-2.9l-2.9-1.1c-0.3-0.1-0.5-0.4-0.5-0.6c-0.1-0.3,0.1-0.6,0.5-0.7l2.9-1.1l1-2.9C26.5,0.2,26.8,0,27.1,0
	c0.3,0,0.5,0.2,0.7,0.4L28.8,3.3z M25.5,11.6c0.8,0.8,0.8,2,0,2.8l-0.2,0.2c0.5,1.4,0.8,2.9,0.8,4.4c0,7.2-5.8,13.1-13,13.1
	c-7.2,0-13-5.8-13-13.1c0-7.1,5.8-13,13-13c1.5,0,3,0.3,4.4,0.8l0.2-0.2c0.8-0.8,2-0.8,2.8,0L25.5,11.6z M13,12c0.6,0,1-0.4,1-1
	s-0.4-1-1-1h-0.5C7.9,10,4,13.8,4,18.5V19c0,0.5,0.5,1,1,1c0.6,0,1-0.5,1-1v-0.5c0-3.6,3-6.5,6.5-6.5H13z"/>
</svg>
